<?xml version="1.0" encoding="utf-8"?>
<!-- Generator: Adobe Illustrator 23.0.1, SVG Export Plug-In . SVG Version: 6.00 Build 0)  -->
<svg version="1.1" id="Layer_1" xmlns="http://www.w3.org/2000/svg" xmlns:xlink="http://www.w3.org/1999/xlink" x="0px" y="0px"
	 viewBox="0 0 134.96 34.09" style="enable-background:new 0 0 134.96 34.09;" xml:space="preserve">
<style type="text/css">
	.st0{fill:#405866;}
	.st1{fill:#5FC7CE;}
	.st2{opacity:0.87;}
	.st3{opacity:0.87;fill:#BDD4DD;}
	.st4{opacity:0.87;fill:#97AFB6;}
</style>
<g>
	<path class="st0" d="M53.8,6.64c0.19,0,0.38,0.01,0.57,0.01c0.54,0.02,1.1,0.04,1.66-0.08c0.31-0.07,0.43-0.29,0.44-0.48
		c0.02-0.37-0.35-0.61-0.54-0.68c-1.38-0.39-2.97-0.24-4.38-0.12l-0.48,0.04c-1.46,0.12-2.99,0.37-4.67,0.78
		c-2.86,0.69-6.11,1.64-8.64,3.44l-0.21,0.11l0.03,0.55l0.52,0.2l0.13-0.13c0.59-0.23,1.17-0.48,1.73-0.72
		c0.78-0.33,1.59-0.68,2.4-0.97c0.28-0.1,0.56-0.2,0.85-0.3c-0.09,0.41-0.17,0.83-0.25,1.29c-0.15,0.83-0.26,1.67-0.36,2.49
		l-0.04,0.35c-0.25,2.06-0.44,4.07-0.57,5.96c-0.14,2.14-0.19,4.1-0.17,5.99L41.81,25c0.01,1.79,0.03,3.65,0.6,5.38
		c0.09,0.25,0.36,0.39,0.59,0.39c0.02,0,0.03,0,0.05,0c0.24-0.02,0.42-0.19,0.46-0.43c0.18-1.27,0.1-2.57,0.02-3.82
		c-0.04-0.61-0.08-1.25-0.09-1.85c-0.03-1.73,0.02-3.58,0.14-5.65c0.11-1.77,0.27-3.63,0.48-5.51c0.1-0.96,0.22-1.92,0.34-2.89
		c0.05-0.47,0.1-0.92,0.14-1.39c0.02-0.24,0.05-0.47,0.06-0.7l0.02-0.22c0.04-0.11,0.05-0.22,0.04-0.32
		c0.03-0.05,0.05-0.1,0.06-0.15c0.8-0.22,1.53-0.4,2.22-0.53c1.42-0.28,2.93-0.46,4.61-0.58C52.23,6.68,52.96,6.65,53.8,6.64z"/>
	<path class="st0" d="M61.9,21.78c-0.18,0.03-0.33,0.14-0.38,0.28c-0.8,1.74-3.06,5.92-6.72,7.24c-1.32,0.48-3.27,0.51-4.44-0.95
		c-0.78-0.98-1.2-2.41-1.23-4.23c-0.07-2.95,0.98-6.17,3.03-9.3c0.99-1.52,2.08-2.87,3.23-3.99c0.66-0.65,1.24-1.12,1.84-1.51
		c0.64-0.42,1.7-1.12,2.38-0.85c0.6,0.23,0.83,1.01,0.7,2.36c-0.1,1.01-0.3,1.99-0.59,2.94c-0.51,1.7-1.37,3.39-2.64,5.17
		c-0.17,0.25-0.11,0.57,0.14,0.76c0.25,0.19,0.64,0.24,0.88-0.03c1.27-1.5,2.28-3.32,3.01-5.43c0.56-1.63,1.4-4.11,0.4-5.84
		c-0.52-0.9-1.23-1.39-2.12-1.46c-2.8-0.22-6.32,3.95-6.99,4.79c-3.01,3.71-4.66,7.46-4.88,11.15v0c-0.15,2.62,0.51,4.96,1.82,6.43
		c0.94,1.06,2.18,1.63,3.68,1.72c0.12,0.01,0.24,0.01,0.36,0.01c3.57,0,6.64-2.87,9.14-8.53c0.07-0.16,0.05-0.34-0.06-0.49
		C62.33,21.85,62.1,21.75,61.9,21.78z"/>
	<path class="st1" d="M129.03,20.01c-0.73,0.82-2.46,2.82-4.32,4.12c-1.27,0.89-2.59,1.43-3.64,0.95c-1-0.41-1.05-1.46-0.96-2.09
		c0.41-0.06,0.77-0.16,1.14-0.25c1-0.32,1.95-0.86,2.73-1.43c0.86-0.6,1.55-1.39,1.82-2.12c0.55-1.24,0.05-2.41-1.91-2.41
		c-0.73,0-1.46,0.19-2.14,0.48c-0.68,0.32-1.32,0.76-1.82,1.27c-0.49,0.48-0.9,1.03-1.22,1.6c-1.96,1.73-3.93,3.37-6.64,4.73
		c-1,0.54-2.09,0.57-2.82-0.09c-0.5-0.44-0.59-1.43-0.36-2.5c0.32-1.33,2.82-6.02,5.91-3.86c0.59,0.38,1.41-0.25,0.82-0.63
		c-4.05-2.57-7.78,0.85-8.78,3.51c-0.05,0.15-0.1,0.31-0.15,0.47c-1.72,2.14-3.97,4.68-6.35,5.48c-0.86,0.28-0.91,0.03-0.77-0.73
		c0.14-0.54,0.55-1.36,1.09-2.19c0.64-1.05,1.46-2.09,2.05-2.76c0.32-0.25,0.09-0.67-0.41-0.7c-0.82-0.06-1.64-0.25-2.32-0.54
		c0.73-0.7,1.18-1.33,1.45-2.22c0.23-0.67,0.18-1.14-0.09-1.49c-0.5-0.67-1.68-0.67-2.55-0.44c-1.41,0.38-2.36,1.43-2.46,2.53
		c-0.09,0.82,0.32,1.46,0.96,1.93c0.22,0.16,0.47,0.3,0.74,0.43c-0.59,0.73-1.37,1.61-2.15,2.39c-1.27,1.3-2.27,1.84-2.05,0.57
		c0.18-0.95,0.5-2.03,0.77-3.01l0.41-1.39c0.45-1.62-1.23-3.1-1.96-2c-0.64,0.89-1.14,1.68-1.59,2.44
		c-0.68,1.08-1.32,2.09-2.14,3.23c-0.46,0.63-0.91,1.14-1.27,1.49c-0.77,0.76-0.86,0.54-0.64-0.22c0.5-1.81,2.41-4.62,1.73-6.33
		c-0.5-1.33-2.5-1.58-2.27-0.73c0.11,0.69-0.17,1.65-0.54,2.66c-1.01,0.89-2.53,1.57-4.06,1.8c0.55-1.52,0.55-3.14-0.23-4.12
		c-1.46-1.96-4.96-1.05-5.5,1.05c-0.65,0.4-1.17,0.9-1.57,1.47c-1.33,1.17-3.06,1.9-4.75,2.62l-0.82-1.43
		c-0.86-1.39-1.64-2.76-1.23-3.99c0.59-1.71,3.64-2.69,3.64-0.41c0,0.57,1.18,0.57,1.18-0.03c0-2.95-4.91-2.91-6.77-0.76
		c-1.46,1.77-0.41,3.64,0.73,5.57c0.41,0.67,0.77,1.33,1.09,2.03c-0.59,0.25-1.14,0.54-1.59,0.86c-1.73,1.11-2.27,2.15-2.14,2.95
		c0.23,1.14,1.77,1.71,3.23,1.52c3.37-0.41,3.82-3.48,3.05-5.45c1.21-0.51,2.43-1.03,3.56-1.69c-0.24,0.92-0.22,1.84,0.12,2.54
		c0.77,1.52,2.82,1.84,4.59,1.05c1.27-0.54,2.32-1.62,2.96-2.82c1.38-0.12,2.77-0.55,3.93-1.17c-0.34,0.96-0.62,1.9-0.66,2.66
		c0,2.09,2.18,2.57,3.91,0.86c0.41-0.38,0.86-0.89,1.32-1.52c0.64-0.86,1.14-1.65,1.64-2.41c-0.86,3.23,0.36,6.94,4.82,2.66
		c0.85-0.84,1.67-1.79,2.27-2.55c0.21,0.06,0.42,0.1,0.64,0.14c0.09,0,0.18,0.03,0.23,0.03c-0.73,0.86-1.73,2.19-2.27,3.36
		c-0.5,1.04-0.68,2.03-0.09,2.69c0.68,0.76,2.27,0.7,3.27,0.35c2.11-0.73,4.03-2.54,5.64-4.39c0.04,0.59,0.21,1.15,0.59,1.6
		c1.27,1.43,4,1.2,5.68,0.35c1.94-1.03,3.57-2.2,5.17-3.47c-0.36,1.58-0.18,3.5,2.15,3.98c1.86,0.38,3.59-0.19,5.14-1.14
		c2-1.27,3.64-3.14,4.77-4.43C130.44,20.04,129.48,19.53,129.03,20.01z M122.03,19.05c0.18-0.19,0.77-0.66,1.36-0.98
		c1.23-0.66,1.68-0.06,1.32,0.82c-0.27,0.6-0.82,1.27-1.55,1.77c-0.64,0.51-1.5,0.95-2.36,1.24c-0.14,0.06-0.32,0.09-0.5,0.13
		C120.57,20.99,121.16,19.88,122.03,19.05z M67.55,27.8c-0.77,0.76-1.91,0.7-2.05-0.16c-0.09-0.54,0.32-1.27,1.68-2.15
		c0.36-0.22,0.73-0.44,1.14-0.63C68.55,25.83,68.37,27,67.55,27.8z M78.33,25.01c-1.27,0.54-1.77-0.41-1.91-1.17
		c-0.14-0.82,0.05-1.81,0.55-2.69c0.68,1.11,2,1.68,3.59,1.77C80.01,23.84,79.24,24.6,78.33,25.01z M81.05,21.91
		c0,0.03-0.05,0.09-0.05,0.16h-0.27c-1.36-0.09-2.46-0.57-2.86-1.58c-0.09-0.13-0.14-0.25-0.14-0.38c0.41-0.41,0.91-0.73,1.55-0.89
		c0.18-0.06,0.36-0.09,0.55-0.13c0.59-0.03,0.73-0.67,0.18-0.82c-0.23-0.06-0.64-0.13-1.05-0.13c-0.23,0-0.5,0.03-0.73,0.06
		c0.77-0.7,2.14-0.82,2.82,0.06C81.69,19.12,81.65,20.54,81.05,21.91z M99.11,19.69c-0.45-0.57-0.18-1.43,0.23-2
		c0.64-0.86,1.36-0.98,1,0.22C100.06,18.61,99.7,19.12,99.11,19.69z"/>
</g>
<g>
	<g>
		<g>
			<path class="st1" d="M10.47,29.4c4.74,0.2,7.11,0.38,11.82,0.93c0.15,0.02,0.33-0.03,0.48-0.13c4.57-3.23,7.11-4.58,12.61-6.65
				c0.22-0.08,0.33-0.23,0.27-0.37c-1.96-5.26-3.23-8.14-6.43-14.32c-0.16-0.31-0.81-0.43-1.12-0.2
				c-7.36,5.26-13.35,12.4-17.91,20.15C10.03,29.09,10.17,29.39,10.47,29.4z"/>
			<g class="st2">
				<path class="st3" d="M22.77,11.87c-1.85-1.51-2.81-2.28-4.79-3.84c-0.29-0.23-0.83-0.16-0.95,0.12
					c-2.38,6.05-4.38,11.94-6.23,18.18C14.56,20.83,18.07,16.57,22.77,11.87z"/>
			</g>
			<g>
				<path class="st4" d="M15.21,10.62c-2.72-1.92-4.14-2.89-7.1-4.87C7.75,5.51,7.2,5.72,7.26,6.06c1.17,6.88,2.12,13.8,2.84,20.74
					C11.45,21.36,13.18,15.86,15.21,10.62z"/>
			</g>
		</g>
	</g>
	<path class="st1" d="M33.32,17.4l0.97-0.04c0.13,0,0.24,0.07,0.3,0.18l1.09,2.33c0.05,0.1,0.04,0.22-0.03,0.32l-0.8,1.11
		c-0.15,0.2-0.46,0.16-0.55-0.08l-1.26-3.4C32.97,17.62,33.11,17.41,33.32,17.4z"/>
</g>
</svg>
